<svg width="1024" height="1024" fill="none" xmlns="http://www.w3.org/2000/svg"><path fill-rule="evenodd" clip-rule="evenodd" d="M512 0c282.8 0 512 229.2 512 512s-229.2 512-512 512S0 794.8 0 512C0 229.3 229.2 0 512 0z" fill="#7524F9"/><path fill-rule="evenodd" clip-rule="evenodd" d="M830.4 354.3v36.2c0 7.1-3.8 13.7-9.9 17.2L703.9 475 808 534.9c13.9 8 22.4 22.8 22.4 38.8v96.4c0 16-8.6 30.8-22.5 38.8L534.1 866c-13.8 7.9-30.8 7.9-44.7-.1l-89.6-51.8c-6.6-3.8-6.6-13.4 0-17.2l295.8-170.3c3.3-1.9 3.3-6.7 0-8.6l-109.9-63.5c-6.1-3.6-13.7-3.6-19.9 0L265.2 727.7c-4.6 2.6-10.3 2.7-14.9 0l-34-19.5c-13.9-8-22.5-22.8-22.5-38.9v-39.5c0-5.3 2.9-10.3 7.5-12.9l430.9-247.6c3.3-1.9 3.3-6.7 0-8.6l-110-63.7c-6.1-3.6-13.7-3.6-19.9 0L208.7 465.9c-6.6 3.8-14.9-1-14.9-8.6V353.8c0-16 8.6-30.8 22.5-38.8l273.8-157.1c13.8-7.9 30.8-7.9 44.6 0l273.2 157.6c13.9 8.1 22.5 22.8 22.5 38.8z" fill="#fff"/></svg>