<svg width="1em" height="1em" viewBox="0 0 40 40" fill="none" xmlns="http://www.w3.org/2000/svg"><path fill-rule="evenodd" clip-rule="evenodd" d="M32.507 11.66l.741-1.838s-.943-1.021-2.088-2.178c-1.146-1.158-3.571-.477-3.571-.477L24.826 4h-9.702l-2.762 3.167s-2.426-.68-3.571.477C7.645 8.8 6.702 9.822 6.702 9.822l.741 1.839-.943 2.723s2.774 10.618 3.1 11.915c.64 2.553 1.077 3.54 2.896 4.834 1.82 1.294 5.121 3.54 5.66 3.88.54.341 1.213.921 1.82.921.606 0 1.28-.58 1.818-.92.54-.34 3.84-2.587 5.66-3.881 1.82-1.294 2.257-2.28 2.897-4.834.325-1.297 3.1-11.915 3.1-11.915l-.944-2.723z" fill="url(#walletBrave_svg__paint0_linear_702_30995)"></path><path fill-rule="evenodd" clip-rule="evenodd" d="M26.814 9.176s3.553 4.34 3.553 5.268c0 .927-.447 1.172-.896 1.654l-2.664 2.86c-.252.27-.777.68-.468 1.418.308.738.763 1.677.257 2.63-.506.952-1.374 1.588-1.93 1.483-.556-.105-1.86-.794-2.341-1.11-.48-.314-2.001-1.582-2.001-2.067 0-.485 1.572-1.357 1.863-1.554.29-.198 1.616-.964 1.643-1.265.027-.3.017-.389-.374-1.132-.392-.743-1.096-1.734-.979-2.394.117-.66 1.253-1.002 2.064-1.312.81-.31 2.371-.893 2.566-.984.195-.091.145-.178-.446-.234-.59-.057-2.266-.282-3.022-.069-.755.213-2.046.537-2.151.709-.104.171-.197.177-.09.77.108.592.66 3.434.715 3.939.053.505.158.838-.38.963-.54.124-1.446.34-1.758.34-.311 0-1.218-.216-1.757-.34-.539-.125-.434-.458-.38-.963.054-.505.607-3.347.714-3.94.107-.592.015-.598-.09-.77-.104-.171-1.395-.495-2.15-.708-.756-.213-2.432.012-3.023.069-.59.056-.64.143-.446.234.195.09 1.756.675 2.566.984.811.31 1.947.653 2.064 1.312.117.66-.587 1.651-.978 2.394-.391.743-.401.831-.374 1.132.027.3 1.352 1.067 1.643 1.265.29.198 1.863 1.069 1.863 1.554 0 .485-1.521 1.753-2.002 2.068-.48.315-1.785 1.004-2.34 1.11-.557.104-1.424-.531-1.93-1.484-.507-.953-.051-1.892.257-2.63.309-.738-.216-1.148-.468-1.419l-2.664-2.859c-.45-.482-.896-.727-.896-1.654 0-.928 3.553-5.268 3.553-5.268s2.998.578 3.402.578c.404 0 1.28-.34 2.089-.612.808-.273 1.347-.275 1.347-.275s.54.002 1.348.275c.808.272 1.684.612 2.088.612.405 0 3.403-.578 3.403-.578zM24.15 25.779c.22.139.086.401-.114.544-.2.143-2.893 2.25-3.154 2.483-.262.233-.646.617-.907.617-.26 0-.645-.384-.906-.617-.261-.233-2.954-2.34-3.154-2.483-.2-.143-.335-.405-.115-.544.22-.14.908-.49 1.858-.987.95-.497 2.133-.919 2.317-.919.185 0 1.368.422 2.318.919.95.496 1.637.847 1.857.987z" fill="#fff" data-darkreader-inline-fill="" style="--darkreader-inline-fill:#dedcd9;"></path><path d="M27.589 7.167L24.827 4h-9.703l-2.762 3.167s-2.426-.68-3.571.477c0 0 3.234-.295 4.346 1.531 0 0 2.998.58 3.402.58.404 0 1.28-.341 2.089-.614.808-.272 1.348-.274 1.348-.274s.539.002 1.347.274c.808.273 1.684.613 2.089.613.404 0 3.402-.579 3.402-.579 1.112-1.826 4.346-1.531 4.346-1.531-1.145-1.158-3.571-.477-3.571-.477z" fill="url(#walletBrave_svg__paint1_linear_702_30995)"></path><defs><linearGradient id="walletBrave_svg__paint0_linear_702_30995" x1="6.5" y1="20.192" x2="33.45" y2="20.192" gradientUnits="userSpaceOnUse"><stop stop-color="#F50" data-darkreader-inline-stopcolor="" style="--darkreader-inline-stopcolor:#c44a0d;"></stop><stop offset="0.41" stop-color="#F50" data-darkreader-inline-stopcolor="" style="--darkreader-inline-stopcolor:#c44a0d;"></stop><stop offset="0.582" stop-color="#FF2000" data-darkreader-inline-stopcolor="" style="--darkreader-inline-stopcolor:#c4240d;"></stop><stop offset="1" stop-color="#FF2000" data-darkreader-inline-stopcolor="" style="--darkreader-inline-stopcolor:#c4240d;"></stop></linearGradient><linearGradient id="walletBrave_svg__paint1_linear_702_30995" x1="9.271" y1="6.918" x2="31.16" y2="6.918" gradientUnits="userSpaceOnUse"><stop stop-color="#FF452A" data-darkreader-inline-stopcolor="" style="--darkreader-inline-stopcolor:#ae210d;"></stop><stop offset="1" stop-color="#FF2000" data-darkreader-inline-stopcolor="" style="--darkreader-inline-stopcolor:#c4240d;"></stop></linearGradient></defs></svg>