<?xml version="1.0" encoding="UTF-8"?>
<!DOCTYPE svg PUBLIC "-//W3C//DTD SVG 1.1//EN" "http://www.w3.org/Graphics/SVG/1.1/DTD/svg11.dtd">
<!-- Creator: CorelDRAW 2021 (64-Bit) -->
<svg xmlns="http://www.w3.org/2000/svg" xml:space="preserve" width="55px" height="55px" version="1.1" style="shape-rendering:geometricPrecision; text-rendering:geometricPrecision; image-rendering:optimizeQuality; fill-rule:evenodd; clip-rule:evenodd"
viewBox="0 0 1182.27 1192.16"
 xmlns:xlink="http://www.w3.org/1999/xlink"
 xmlns:xodm="http://www.corel.com/coreldraw/odm/2003">
 <defs>
  <style type="text/css">
   <![CDATA[
    .fil9 {fill:black}
    .fil2 {fill:#02B6DD}
    .fil1 {fill:#050506}
    .fil7 {fill:#56C9EA}
    .fil8 {fill:#F4C41B}
    .fil10 {fill:whitesmoke}
    .fil0 {fill:#FEFEFE}
    .fil5 {fill:#725D1A;fill-rule:nonzero}
    .fil3 {fill:#937821;fill-rule:nonzero}
    .fil6 {fill:#9A8023;fill-rule:nonzero}
    .fil4 {fill:#D8BA5A;fill-rule:nonzero}
   ]]>
  </style>
 </defs>
 <g id="Capa_x0020_1">
  <metadata id="CorelCorpID_0Corel-Layer"/>
  <path class="fil0" d="M727.86 599.42l5.56 -14.54c22.63,3.42 96.56,16.93 104.09,52.33l-27.61 -19.19c4.59,13.42 29.99,20.59 27.65,35.91l-30.33 -22.11c2.67,17.33 34.3,18.64 26.33,40.15 -8.05,-6.86 -22.89,-23.14 -32.31,-24.74 1.75,8.77 21.75,21.31 26.24,27.75 6.73,9.65 5.32,2.08 1.66,10.94 -12.69,2.36 -30.63,-18.57 -44.9,-25.22 -14.42,-6.71 -31.1,-6.84 -38.78,9.46 -0.04,22.12 24.45,16.04 10.95,34.03 -5.67,-1.67 -37.53,-24.53 -42.64,-31.29 -6.86,-9.08 -9.71,-26.18 -6.82,-36.08 -8.29,0.08 -10.38,5 -17.45,1.41 -8.52,-4.33 -4.88,-9.06 -7.65,-17.55 10.97,-7.63 14.73,-0.47 23.28,-8.62 6.01,-5.73 5.9,-7.64 4.14,-12.8 -1.7,-4.99 -0.86,-1.56 -3.25,-5.06l-4.85 -6.75c10.24,-11.06 21.8,-16.69 25.03,0.68 0.08,0.44 0.43,4.85 0.53,5.53 0.65,4.52 -0.45,1.18 1.12,5.78z"/>
  <path class="fil1" d="M837.6 654.45c2.34,-15.32 -23.06,-22.49 -27.65,-35.91l27.61 19.19c-7.54,-35.4 -81.46,-48.91 -104.09,-52.33l-5.56 14.54c-1.58,-4.6 -0.47,-1.25 -1.12,-5.78 -0.1,-0.68 -0.45,-5.08 -0.53,-5.53 -3.23,-17.37 -14.79,-11.74 -25.03,-0.68l4.85 6.75c2.39,3.5 1.55,0.07 3.25,5.06 1.76,5.16 1.87,7.07 -4.14,12.8 -8.55,8.15 -10.04,1.05 -21.01,8.68 -0.7,9.41 -2.27,11.26 6.49,16.44 3.82,0.94 8.92,3.53 16.34,-0.36 -2.89,9.9 -0.04,27.01 6.82,36.09 5.11,6.76 34.78,24.84 41.03,29.13 13.5,-17.99 -9.39,-9.75 -9.35,-31.87 7.67,-16.3 24.36,-16.17 38.78,-9.46 14.27,6.64 31.7,27.05 44.39,24.68 2.17,-5.24 3.65,-4.63 3.23,-5.1 -0.41,-0.47 -1.65,-1.37 -4.39,-5.3 -4.49,-6.44 -24.5,-18.98 -26.24,-27.75 9.42,1.6 24.26,17.88 32.31,24.74 7.97,-21.51 -23.66,-22.82 -26.33,-40.15l30.33 22.11zm-131.27 -52.8c-12.55,-11.37 -92.02,-36.32 -108,-37.74 -25.08,-2.23 -77.91,7.9 -99.36,18.99 5.56,12.26 9.26,10.17 21.57,8.07 63.39,-10.78 60.38,-23.01 132.81,6.02 33.48,13.42 42.56,24.77 52.98,4.66zm-13.38 -13.78c26.31,-33.11 28.06,-9.33 48.18,-7.29 18.02,1.82 34.56,4.88 54.59,13.35 17.78,7.51 46.72,25.27 48.35,42.44 1.19,12.55 -2.79,50.58 -14.04,55.68 -27.01,2.16 -59.28,-54.46 -76.1,-18.52 -6.66,14.23 19.73,3.58 9.47,35.29 -2.84,8.76 -55.07,-23.11 -61.01,-43.14l-2.4 -13.31c-0.42,-5.41 0.68,-2.85 0.11,-6.16 -26.1,-0.71 -20.58,-13.27 -22.6,-31.28 -86.77,-45.8 -104,-24.43 -161.31,-16.02 -9.38,1.38 -15.13,1.81 -23.47,-8.74 -6.85,-24.11 79.12,-33.19 92.33,-33.84 27.76,-1.37 76.85,17.08 107.88,31.54zm13.38 13.78c-10.42,20.11 -19.5,8.76 -52.98,-4.66 -72.43,-29.03 -69.42,-16.8 -132.81,-6.02 -12.31,2.09 -16.01,4.19 -21.57,-8.07 21.45,-11.08 74.28,-21.21 99.36,-18.99 15.98,1.42 95.45,26.37 108,37.74z"/>
  <path class="fil2" d="M50.08 370.93c18.6,50.83 -3.76,86.6 55.98,116.79 156.29,78.98 381.91,-50.45 383.65,-68.33l-13.9 -6.6c-27.17,-19.7 -46.86,-32.25 -79.17,-46.95 -111.82,-50.88 -201.89,-56.47 -319.14,-12.76 -4.69,1.75 -13.1,4.92 -17.11,7.57l-10.32 10.29z"/>
  <polygon class="fil3" points="913.33,318.12 907.53,337.99 907.53,916.04 913.33,921.85 1182.12,763.24 "/>
  <polygon class="fil4" points="913.33,318.12 644.55,763.24 913.33,921.85 913.33,641.3 "/>
  <polygon class="fil3" points="913.33,972.58 909.97,976.7 909.97,1182.53 913.33,1192.16 1182.27,814.12 "/>
  <polygon class="fil4" points="913.33,1192.16 913.33,972.58 644.55,814.12 "/>
  <polygon class="fil5" points="913.33,921.85 1182.12,763.24 913.33,641.3 "/>
  <polygon class="fil6" points="644.55,763.24 913.33,921.85 913.33,641.3 "/>
  <path class="fil7" d="M50.08 370.93l10.32 -10.29c4.01,-2.65 12.42,-5.82 17.11,-7.57 117.24,-43.71 207.31,-38.12 319.14,12.76 32.31,14.7 52,27.26 79.17,46.95l13.9 6.6c-22.66,-41.29 -84.82,-98.62 -116.56,-123.79 -157.97,-125.23 -387.21,-83.96 -372.47,-3.45 6.25,34.13 35.22,39.27 49.4,78.78z"/>
  <path class="fil8" d="M657.97 229.59c18.99,24.54 38.37,41.29 37.56,81.15 -1.35,66.49 -63.52,105.72 -117.6,94.03 -29.94,-6.47 -38.86,-18.59 -63.44,-42.03 -17.35,101.78 137.54,204.99 237.89,99.54 80.27,-84.35 21.56,-233.86 -94.41,-232.69z"/>
  <path class="fil9" d="M529.45 347.86c-22.77,-40.78 -4.86,-88.24 29.05,-107.12 41.12,-22.9 89.63,-4.42 108.24,31.09 48.12,91.81 -88,164.3 -137.29,76.04zm128.52 -118.27c115.97,-1.17 174.67,148.35 94.41,232.69 -100.34,105.45 -255.24,2.24 -237.89,-99.54 24.58,23.44 33.49,35.55 63.44,42.03 54.09,11.69 116.26,-27.54 117.6,-94.03 0.81,-39.86 -18.57,-56.61 -37.56,-81.15zm-186.92 217.6c20.46,23.6 63.58,48 87.27,59.49 17.14,8.31 79.53,34.2 103.85,31.02l-0.83 -26.13c79.93,-15.03 119.55,-59.3 131.34,-115.58 16.15,-77.12 -28.64,-128.69 -78.48,-159.22 49.85,-75.38 64.98,-133.14 -10.74,-191.24 -12.82,-9.84 -12.1,-4.97 -16.13,-20.47 -12.94,-49.69 -76.04,-16.19 -51.76,20.54 13.44,20.33 29.6,10.22 51.54,3.3 28.8,22.65 55.8,38.22 53.92,91.56 -1.17,33.23 -19.36,70.5 -38.31,90.66 -13.79,-1.67 -19.47,-5.5 -35.72,-5.68 -2.34,-89.09 -31.07,-176.59 -135.71,-166.17 -18.95,1.89 -11.01,5.08 -24.06,-4.81 -15.88,-12.05 -33.23,-12.57 -46.2,4.15 -21.8,35.55 40.32,72.08 55.06,15.26 115.7,-35.16 139.35,104.67 135.23,145.44l-1.11 18.01c-66.44,-60.84 -210.77,37.97 -105.91,145.74 -22.23,-12.19 -19.87,-25.84 -36.86,-36.76 1.63,17.76 4.78,48.46 5.85,68.58l-42.24 32.32z"/>
  <path class="fil8" d="M360.77 626.06c11.41,3.03 35.53,26.8 53.31,38.84 31.31,21.2 78.69,45.32 114.63,56.59 40.4,12.67 41.01,14.31 61.05,16.15 14.01,-22.75 32.55,-36.85 41.64,-68.56 -50.28,-0.58 -98.73,-24.06 -136.08,-37.84 -19.66,-7.25 -93.78,-54.03 -108.7,-82.18 -4.84,15.44 -10.4,22.01 -15.4,36.93 -4.6,13.74 -7.29,22.69 -10.45,40.08z"/>
  <path class="fil9" d="M386.62 549.05c14.92,28.16 89.05,74.93 108.7,82.18 37.35,13.78 85.81,37.26 136.08,37.84 7.31,-8.48 20.51,-47.32 20.22,-63.82 -50.82,1.13 -88.28,-18.88 -125.65,-37.57 -20.63,-10.32 -35.79,-17.03 -55.85,-31.49 -10.6,-7.64 -40.78,-35.44 -48.05,-38.81 -10.82,9.61 -31.24,40.51 -35.46,51.66z"/>
  <path class="fil8" d="M542.25 777.09c-9.51,-9.67 -21.22,7.29 -36.53,3.78l-67.8 -24.27 -79.82 -48.27c-0.63,-0.97 -1.59,-0.69 -2.42,-0.94 -4.78,38.73 35.93,258.42 71.35,287.03 2.05,-13.63 -17.24,-114.07 -7.35,-133.47 5.6,-5.32 45.66,-27.4 55.71,-32.87 13.16,-7.16 58.04,-39.77 66.86,-50.99z"/>
  <path class="fil8" d="M422.08 497.4c7.27,3.37 37.45,31.17 48.05,38.81 20.06,14.46 35.22,21.18 55.85,31.49 37.37,18.68 74.83,38.7 125.65,37.57 9.77,-21.43 6.46,-45.49 10.54,-67.58 -24.32,3.18 -86.71,-22.71 -103.85,-31.02 -23.68,-11.48 -66.81,-35.88 -87.27,-59.49 -18.49,11.51 -39.4,34.89 -48.97,50.21z"/>
  <path class="fil9" d="M355.67 707.39c0.83,0.25 1.8,-0.03 2.42,0.94 19.13,34.73 160.27,97.41 166.37,84.94 26.92,-19.54 44.64,-39.75 65.3,-55.62 -20.97,-3 -20.66,-3.49 -61.05,-16.15 -35.94,-11.27 -83.32,-35.39 -114.63,-56.59 -17.78,-12.04 -41.9,-35.81 -53.31,-38.84 -2.3,24.74 -9.76,55.46 -5.1,81.33z"/>
  <path class="fil9" d="M623.37 249.19c-1.89,13.04 0.84,34.66 -25.28,29.08 -17.9,-3.83 -14.81,-23.63 -11.16,-33 -78.81,17.65 -64.9,122.54 2.96,128.16 78.94,6.54 98.24,-97.03 33.47,-124.24z"/>
  <path class="fil10" d="M623.37 249.19c64.77,27.2 45.47,130.78 -33.47,124.24 -67.86,-5.62 -81.77,-110.51 -2.96,-128.16 -3.65,9.37 -6.75,29.17 11.16,33 26.12,5.59 23.39,-16.04 25.28,-29.08zm-93.92 98.67c49.29,88.26 185.41,15.77 137.29,-76.04 -18.61,-35.51 -67.11,-53.98 -108.24,-31.09 -33.92,18.89 -51.82,66.34 -29.05,107.12z"/>
  <path class="fil1" d="M790.7 796.98c-9.49,12.24 -32.19,-1.22 -45.08,4.7l32.93 6.79c-30.85,18.92 -91.58,-25.34 -109.65,-39.39l6.71 -14.05c-4.42,2.03 -1.23,0.52 -4.96,3.17 -0.56,0.4 -3.99,3.18 -4.37,3.42 -14.81,9.63 -18.7,-2.63 -17.74,-17.67l8.24 -1.13c4.18,-0.68 1.12,1.07 5.9,-1.13 4.95,-2.28 6.41,-3.51 6.43,-11.82 0.02,-11.81 -6.16,-8 -8.18,-21.21 6.34,-6.99 6.6,-9.4 16.39,-6.62 3.32,2.12 8.7,4.04 11,12.09 5.18,-8.92 19.54,-18.64 30.85,-19.92 8.42,-0.95 41.96,8.09 49.38,9.67 -3.74,22.18 -13.53,-0.09 -29.54,15.18 -6.53,16.79 5.06,28.79 19.86,34.62 14.65,5.77 41.44,4.34 48.48,15.17 -2.31,5.18 -0.84,5.83 -1.47,5.86 -0.63,0.02 -2.13,-0.25 -6.87,0.47 -7.76,1.18 -30.63,-4.68 -38.19,0.1 7.66,5.73 29.67,5.27 40.19,6.37 -10.1,20.6 -32.84,-1.43 -47.24,8.57l36.92 6.75zm-128.71 -58.76c-16.89,-1.26 -89.72,-41.68 -101.76,-52.28 -18.9,-16.65 -47.95,-61.92 -54.7,-85.1 12.71,-4.42 13.75,-0.29 20.71,10.07 35.86,53.38 24.92,59.62 95.86,92.11 32.79,15.02 47.28,13.78 39.88,35.19zm-19.2 -0.2c-5.87,41.88 12.58,26.76 27.91,39.94 13.74,11.81 27.35,21.69 47.29,30.37 17.7,7.71 50.5,16.45 64.08,5.8 9.92,-7.78 34.74,-36.86 30.69,-48.54 -17.04,-21.06 -80.31,-5.45 -65.85,-42.4 5.72,-14.63 16.19,11.84 32.1,-17.45 4.39,-8.09 -54.69,-23.99 -73.3,-14.5l-11.3 7.43c-4.21,3.42 -1.6,2.46 -4.39,4.32 -18.5,-18.42 -23.8,-5.77 -38.24,5.17 -92.98,-31.33 -89.36,-58.55 -122.75,-105.88 -5.46,-7.75 -9.12,-12.22 -22.5,-10.99 -22.19,11.64 30.45,80.21 39.09,90.24 18.14,21.07 65.33,43.93 97.18,56.46zm19.2 0.2c7.4,-21.41 -7.09,-20.17 -39.88,-35.19 -70.95,-32.5 -60,-38.74 -95.86,-92.11 -6.96,-10.37 -8,-14.49 -20.71,-10.07 6.75,23.18 35.8,68.45 54.7,85.1 12.04,10.6 84.87,51.01 101.76,52.28z"/>
  <path class="fil0" d="M675.21 755.35l-6.71 14.05c18.07,14.05 78.8,58.32 109.65,39.39l-32.93 -6.79c12.89,-5.92 35.59,7.55 45.08,-4.7l-36.92 -6.75c14.4,-10.01 37.14,12.02 47.24,-8.57 -10.52,-1.11 -32.54,-0.65 -40.19,-6.38 7.56,-4.77 30.43,1.09 38.19,-0.1 11.63,-1.77 5.18,2.42 9.07,-6.33 -7.03,-10.83 -34.56,-9.4 -49.21,-15.17 -14.8,-5.83 -26.39,-17.83 -19.86,-34.62 16,-15.27 28.47,6.67 32.21,-15.51 -5.12,-2.96 -43.63,-10.3 -52.05,-9.35 -11.31,1.28 -25.67,11 -30.85,19.92 -5.66,-6.07 -3.53,-10.97 -11,-13.62 -9.01,-3.19 -9.92,2.71 -17.99,6.54 2.03,13.21 9.8,11 9.79,22.81 -0.01,8.31 -1.48,9.54 -6.43,11.82 -4.78,2.2 -1.72,0.45 -5.91,1.13l-8.24 1.13c-0.96,15.04 2.92,27.3 17.74,17.67 0.38,-0.24 3.81,-3.02 4.37,-3.42 3.73,-2.64 0.54,-1.14 4.96,-3.17z"/>
  <path class="fil1" d="M790.7 796.98c-9.49,12.24 -32.19,-1.22 -45.08,4.7l32.93 6.79c-30.85,18.92 -91.58,-25.34 -109.65,-39.39l6.71 -14.05c-4.42,2.03 -1.23,0.52 -4.96,3.17 -0.56,0.4 -3.99,3.18 -4.37,3.42 -14.81,9.63 -18.7,-2.63 -17.74,-17.67l8.24 -1.13c4.18,-0.68 1.12,1.07 5.9,-1.13 4.95,-2.28 6.41,-3.51 6.43,-11.82 0.02,-11.81 -6.16,-8 -8.18,-21.21 6.34,-6.99 6.6,-9.4 16.39,-6.62 3.32,2.12 8.7,4.04 11,12.09 5.18,-8.92 19.54,-18.64 30.85,-19.92 8.42,-0.95 41.96,8.09 49.38,9.67 -3.74,22.18 -13.53,-0.09 -29.54,15.18 -6.53,16.79 5.06,28.79 19.86,34.62 14.65,5.77 41.44,4.34 48.48,15.17 -2.31,5.18 -0.84,5.83 -1.47,5.86 -0.63,0.02 -2.13,-0.25 -6.87,0.47 -7.76,1.18 -30.63,-4.68 -38.19,0.1 7.66,5.73 29.67,5.27 40.19,6.37 -10.1,20.6 -32.84,-1.43 -47.24,8.57l36.92 6.75zm-128.71 -58.76c-16.89,-1.26 -89.72,-41.68 -101.76,-52.28 -18.9,-16.65 -47.95,-61.92 -54.7,-85.1 12.71,-4.42 13.75,-0.29 20.71,10.07 35.86,53.38 24.92,59.62 95.86,92.11 32.79,15.02 47.28,13.78 39.88,35.19zm-19.2 -0.2c-5.87,41.88 12.58,26.76 27.91,39.94 13.74,11.81 27.35,21.69 47.29,30.37 17.7,7.71 50.5,16.45 64.08,5.8 9.92,-7.78 34.74,-36.86 30.69,-48.54 -17.04,-21.06 -80.31,-5.45 -65.85,-42.4 5.72,-14.63 16.19,11.84 32.1,-17.45 4.39,-8.09 -54.69,-23.99 -73.3,-14.5l-11.3 7.43c-4.21,3.42 -1.6,2.46 -4.39,4.32 -18.5,-18.42 -23.8,-5.77 -38.24,5.17 -92.98,-31.33 -89.36,-58.55 -122.75,-105.88 -5.46,-7.75 -9.12,-12.22 -22.5,-10.99 -22.19,11.64 30.45,80.21 39.09,90.24 18.14,21.07 65.33,43.93 97.18,56.46zm19.2 0.2c7.4,-21.41 -7.09,-20.17 -39.88,-35.19 -70.95,-32.5 -60,-38.74 -95.86,-92.11 -6.96,-10.37 -8,-14.49 -20.71,-10.07 6.75,23.18 35.8,68.45 54.7,85.1 12.04,10.6 84.87,51.01 101.76,52.28z"/>
  <path class="fil9" d="M723.54 456.59c0,0 -0.65,2.91 -6.9,7.48 -11.25,7.54 -23.41,10.57 -36.65,8.62 -14.14,-3.68 -19.5,-7.39 -34.11,-23.7 -3.18,1.59 -2.28,2.21 -5.81,3.75 -0.78,-8.83 5.73,-13.85 14.68,-13.01 -1.49,4.27 -3.25,3.36 -6.04,6.39 5.39,6.54 21.61,19.95 26.47,20.73 19.18,7.38 31.56,-3.17 48.37,-10.26z"/>
 </g>
</svg>
